<?xml version="1.0" encoding="utf-8"?>
<!-- Generator: Adobe Illustrator 21.1.0, SVG Export Plug-In . SVG Version: 6.00 Build 0)  -->
<svg version="1.1" id="Layer_1" xmlns="http://www.w3.org/2000/svg" xmlns:xlink="http://www.w3.org/1999/xlink" x="0px" y="0px"
	 viewBox="0 0 1000 1000" style="enable-background:new 0 0 1000 1000;" xml:space="preserve">
<style type="text/css">
	.st0{fill:#231F20;}
	.st1{font-family:'Lato-Black';}
	.st2{font-size:222.8108px;}
	.st3{letter-spacing:16;}
</style>
<text transform="matrix(1 0 0 1 44.488 544.4676)"><tspan x="0" y="0" class="st0 st1 st2 st3">FLAME </tspan><tspan x="0" y="297.1" class="st0 st1 st2 st3">DESIGN</tspan></text>
<rect x="60.3" y="948.7" class="st0" width="147.3" height="41.8"/>
<path class="st0" d="M233.2,175.2L233.2,175.2c0.1-44-45.8-71.4-54.9-76.4c-0.3-0.2-0.5,0.2-0.3,0.4c20.6,22.1,4,57.3,4,57.3
	c-6-27.3-25.1-31.5-29.4-32.1c-0.3,0-0.5,0.3-0.3,0.5c6.5,7,6.7,15.1,6.7,15.1s-0.7,24.2-23.1,24.2c-19.3,0-22.5-17.1-23-21.8
	c0.1-3.5,0.7-6.9,2-10.1c1.1-2.7,3.1-5.4,5.3-7.9c7.1-8.2,68.8-84.6,8.8-111.5c-0.2-0.1-0.4,0.2-0.3,0.3c3.3,3.5,15.2,17.9-0.8,33.9
	C110.3,65,43.1,102.3,38.4,168h-0.2c-0.5,3.9-0.7,7.9-0.7,11.9c0,54.1,43.9,98,98,98c54.1,0,98-43.9,98-98
	C233.4,178.3,233.2,176.8,233.2,175.2z"/>
</svg>
