<svg id="Layer_1" xmlns="http://www.w3.org/2000/svg" viewBox="0 0 595.3 841.9">
  <style>
    .st0{font-family:&apos;Lato-Black&apos;}.st1{font-size:73.1126px}.st2{letter-spacing:5}
  </style>
  <text transform="translate(66.535 256.385)">
    <tspan x="0" y="0" class="st0 st1 st2">FLAME </tspan><tspan x="0" y="97.5" class="st0 st1 st2">SOLUTIONS</tspan>
  </text>
  <path d="M71.2 401.6h35v13.7h-35zM120.7 119.7c0-14.5-15-23.4-18-25.1-.1-.1-.2.1-.1.1 6.8 7.3 1.3 18.8 1.3 18.8-2-9-8.2-10.3-9.6-10.5-.1 0-.2.1-.1.2 2.1 2.3 2.2 5 2.2 5s-.2 7.9-7.6 7.9c-6.3 0-7.4-5.6-7.5-7.2 0-1.1.2-2.3.7-3.3.4-.9 1-1.8 1.7-2.6 2.3-2.7 22.6-27.8 2.9-36.6-.1 0-.1.1-.1.1 1.1 1.1 5 5.9-.3 11.1-5.8 5.8-27.9 18-29.4 39.6h-.1c-.2 1.3-.2 2.6-.2 3.9 0 17.8 14.4 32.2 32.2 32.2 17.8 0 32.2-14.4 32.2-32.2-.1-.4-.2-.9-.2-1.4z"/>
</svg>
