<svg id="Layer_1" xmlns="http://www.w3.org/2000/svg" viewBox="0 0 1000 1000"><style>.st0{fill:#231f20}.st1{font-family:&apos;Lato-Black&apos;}.st2{font-size:222.8108px}.st3{letter-spacing:16}</style><text transform="translate(44.488 544.468)"><tspan x="0" y="0" class="st0 st1 st2 st3">FLAME </tspan><tspan x="0" y="297.1" class="st0 st1 st2 st3">DESIGN</tspan></text><path class="st0" d="M60.3 948.7h147.3v41.8H60.3zm172.9-773.5c.1-44-45.8-71.4-54.9-76.4-.3-.2-.5.2-.3.4 20.6 22.1 4 57.3 4 57.3-6-27.3-25.1-31.5-29.4-32.1-.3 0-.5.3-.3.5 6.5 7 6.7 15.1 6.7 15.1s-.7 24.2-23.1 24.2c-19.3 0-22.5-17.1-23-21.8.1-3.5.7-6.9 2-10.1 1.1-2.7 3.1-5.4 5.3-7.9 7.1-8.2 68.8-84.6 8.8-111.5-.2-.1-.4.2-.3.3 3.3 3.5 15.2 17.9-.8 33.9C110.3 65 43.1 102.3 38.4 168h-.2c-.5 3.9-.7 7.9-.7 11.9 0 54.1 43.9 98 98 98s98-43.9 98-98c-.1-1.6-.3-3.1-.3-4.7z"/></svg>